#!OML:ASF I:\salsa\salsa 7_09\Patient 1\Session 1\dancermale.ASF
:FULLY-SPECIFIED
:DEGREES
2043
root -3.6089 17.4743 -2.7985 -532.817 153.452 182.836
lowerback -3.71636 2.67177 -1.10265
upperback -2.37705 3.60639 -1.06573
thorax -0.357589 1.81425 -0.355501
lowerneck -6.67339 3.53566 2.54201
upperneck 16.2146 5.33826 -4.50021
head 6.19887 2.4445 -1.44653
rclavicle 5.39669e-015 -2.08724e-015
rhumerus -55.7963 -6.65665 -85.1466
rradius 95.0621
rwrist 19.414
rhand -28.3436 2.52295
rfingers 7.12502
rthumb -1.71774 -387.45
lclavicle 5.39669e-015 -2.08724e-015
lhumerus -21.0555 32.825 61.5165
lradius 70.6738
lwrist 64.5252
lhand -28.3259 58.0168
lfingers 7.12502
lthumb -1.70067 -272.01
rfemur -5.916 3.07863 16.0705
rtibia 9.91008
rfoot -15.7189 -28.9788
rtoes 17.329
lfemur -0.107262 -10.8558 -9.73256
ltibia 2.67182
lfoot -10.7594 36.4964
ltoes -13.2772
2044
root -3.60314 17.4743 -2.79447 -532.843 153.586 182.818
lowerback -3.74583 2.68583 -1.15416
upperback -2.31883 3.62767 -1.07023
thorax -0.284381 1.82483 -0.327341
lowerneck -6.73967 3.5086 2.59323
upperneck 16.1685 5.29857 -4.55194
head 6.19705 2.42339 -1.47342
rclavicle -3.46957e-014 -1.83876e-015
rhumerus -55.4997 -6.72462 -85.0767
rradius 93.9517
rwrist 18.8544
rhand -27.8885 2.41973
rfingers 7.12502
rthumb -1.27821 -387.556
lclavicle -3.46957e-014 -1.83876e-015
lhumerus -21.9737 32.4299 61.6561
lradius 70.7875
lwrist 63.6457
lhand -28.11 57.7594
lfingers 7.12502
lthumb -1.49213 -272.266
rfemur -5.85778 3.10527 16.059
rtibia 9.82849
rfoot -15.6453 -28.9269
rtoes 16.9234
lfemur -0.0823847 -10.6905 -9.72746
ltibia 2.7596
lfoot -10.7716 36.4614
ltoes -13.4005
2045
root -3.59569 17.4775 -2.78877 -532.845 153.639 182.862
lowerback -3.77874 2.66804 -1.25986
upperback -2.24643 3.60857 -1.08473
thorax -0.197331 1.81548 -0.279995
lowerneck -6.76379 3.46223 2.45835
upperneck 16.0533 5.21914 -4.40056
head 6.15437 2.38826 -1.40963
rclavicle -2.2135e-014 -7.00716e-015
rhumerus -55.106 -6.85024 -85.0173
rradius 92.7549
rwrist 18.0461
rhand -27.1737 2.19098
rfingers 7.12502
rthumb -0.587866 -387.788
lclavicle -2.2135e-014 -7.00716e-015
lhumerus -22.9467 32.0349 61.8738
lradius 70.7681
lwrist 62.6693
lhand -27.8309 57.0382
lfingers 7.12502
lthumb -1.22263 -272.986
rfemur -5.77378 3.04861 15.9817
rtibia 9.75329
rfoot -15.5869 -28.9054
rtoes 16.5797
lfemur -0.0589533 -10.5531 -9.78524
ltibia 2.81338
lfoot -10.7105 36.3712
ltoes -13.4942
2046
root -3.58592 17.4825 -2.78319 -532.756 153.665 182.919
lowerback -3.89457 2.65454 -1.33921
upperback -2.20358 3.59615 -1.11624
thorax -0.0916584 1.80918 -0.261088
lowerneck -6.85503 3.45697 2.4432
upperneck 16.1122 5.19133 -4.26191
head 6.18379 2.38179 -1.3636
rclavicle -3.62491e-014 -2.127e-014
rhumerus -54.7625 -6.93663 -85.0003
rradius 91.381
rwrist 17.4875
rhand -26.9055 1.90631
rfingers 7.12502
rthumb -0.328825 -388.073
lclavicle -3.62491e-014 -2.127e-014
lhumerus -24.0449 31.5154 62.1671
lradius 70.8518
lwrist 61.9302
lhand -27.8043 57.184
lfingers 7.12502
lthumb -1.19689 -272.84
rfemur -5.79771 2.98587 15.8879
rtibia 9.72268
rfoot -15.5725 -28.9274
rtoes 16.2889
lfemur -0.110786 -10.5399 -9.86297
ltibia 2.83336
lfoot -10.7745 36.3681
ltoes -13.1855
2047
root -3.57742 17.4858 -2.77904 -532.584 153.892 182.943
lowerback -4.07113 2.69747 -1.42932
upperback -2.2414 3.65992 -1.12647
thorax -0.0374532 1.8418 -0.211136
lowerneck -6.85325 3.46869 2.5649
upperneck 16.1013 5.21132 -4.38478
head 6.18711 2.3896 -1.42099
rclavicle 2.98744e-014 -8.69683e-015
rhumerus -54.5123 -7.03721 -84.9683
rradius 89.6654
rwrist 17.2585
rhand -26.9102 1.97765
rfingers 7.12502
rthumb -0.3334 -388.002
lclavicle 2.98744e-014 -8.69683e-015
lhumerus -25.3954 30.8113 62.4675
lradius 71.0354
lwrist 61.4717
lhand -28.0263 58.0239
lfingers 7.12502
lthumb -1.41132 -272.001
rfemur -6.01148 3.08445 15.814
rtibia 9.7637
rfoot -15.5525 -28.878
rtoes 15.9896
lfemur -0.182767 -10.5838 -9.92717
ltibia 2.78396
lfoot -10.9802 36.6142
ltoes -12.5547
2048
root -3.56754 17.4868 -2.7731 -532.533 154.181 182.943
lowerback -4.21702 2.74418 -1.51269
upperback -2.20448 3.72868 -1.10963
thorax 0.0747542 1.8761 -0.135992
lowerneck -6.87507 3.49168 2.6504
upperneck 16.0608 5.24912 -4.50743
head 6.18501 2.40366 -1.47067
rclavicle -5.12148e-014 2.15681e-014
rhumerus -54.1403 -7.22801 -84.9356
rradius 87.5696
rwrist 17.1758
rhand -26.7693 2.26982
rfingers 7.12502
rthumb -0.197281 -387.71
lclavicle -5.12148e-014 2.15681e-014
lhumerus -26.8345 30.0251 62.8645
lradius 71.1984
lwrist 61.123
lhand -28.7555 58.8895
lfingers 7.12502
lthumb -2.11558 -271.141
rfemur -6.0807 3.2157 15.7556
rtibia 9.7572
rfoot -15.5031 -28.7596
rtoes 15.7184
lfemur -0.100444 -10.5899 -10.0028
ltibia 2.72682
lfoot -11.1589 36.8581
ltoes -12.1033
2049
root -3.55587 17.4876 -2.7651 -532.586 154.375 182.963
lowerback -4.28073 2.76439 -1.59745
upperback -2.12111 3.761 -1.0901
thorax 0.188721 1.8917 -0.0614736
lowerneck -6.87903 3.50436 2.61836
upperneck 15.9578 5.26338 -4.50218
head 6.15278 2.40962 -1.463
rclavicle -6.17785e-015 4.91992e-015
rhumerus -53.7189 -7.28861 -84.9978
rradius 85.4634
rwrist 16.8765
rhand -26.4208 2.16092
rfingers 7.12502
rthumb 0.139287 -387.819
lclavicle -6.17785e-015 4.91992e-015
lhumerus -28.2276 28.9287 63.4428
lradius 71.1783
lwrist 60.5729
lhand -30.1953 59.9442
lfingers 7.12502
lthumb -3.50605 -270.105
rfemur -5.97329 3.26407 15.6794
rtibia 9.69981
rfoot -15.4222 -28.6357
rtoes 15.5445
lfemur 0.0690581 -10.5764 -10.1115
ltibia 2.72218
lfoot -11.3445 36.9577
ltoes -11.8386
2050
root -3.54899 17.4868 -2.75935 -532.642 154.476 182.951
lowerback -4.18179 2.76068 -1.75118
upperback -2.14577 3.75816 -0.999716
thorax 0.0922549 1.89247 0.109632
lowerneck -6.70199 3.50194 2.52609
upperneck 15.815 5.2682 -4.50473
head 6.07481 2.41082 -1.45206
rclavicle 5.18987e-014 -5.96354e-015
rhumerus -53.4929 -7.17209 -85.0658
rradius 83.5101
rwrist 16.5176
rhand -25.9102 1.71713
rfingers 7.12502
rthumb 0.632508 -388.262
lclavicle 5.18987e-014 -5.96354e-015
lhumerus -29.693 27.5004 64.2167
lradius 70.8737
lwrist 59.7368
lhand -31.1828 60.6453
lfingers 7.12502
lthumb -4.45961 -90.5784
rfemur -5.87752 3.3408 15.6727
rtibia 9.64728
rfoot -15.3899 -28.6139
rtoes 15.6333
lfemur 0.163882 -10.5412 -10.1372
ltibia 2.75345
lfoot -11.4916 36.986
ltoes -11.7396
2051
root -3.54378 17.4849 -2.75359 -532.675 154.556 182.91
lowerback -4.09542 2.74278 -1.97732
upperback -2.19152 3.73834 -0.836587
thorax -0.0281245 1.88628 0.394419
lowerneck -6.48529 3.50772 2.47064
upperneck 15.6618 5.29909 -4.626
head 5.99194 2.41932 -1.4834
rclavicle 1.0245e-013 2.68359e-015
rhumerus -53.4107 -6.96528 -85.098
rradius 81.6518
rwrist 16.3506
rhand -25.3475 1.32851
rfingers 7.12502
rthumb 1.17595 -388.648
lclavicle 1.0245e-013 2.68359e-015
lhumerus -31.1523 26.0071 65.2974
lradius 70.3991
lwrist 58.4642
lhand -31.5973 61.0308
lfingers 7.12502
lthumb -4.8599 -90.9551
rfemur -5.78725 3.53184 15.7241
rtibia 9.54068
rfoot -15.4019 -28.7142
rtoes 15.7747
lfemur 0.223706 -10.5184 -10.1191
ltibia 2.76403
lfoot -11.534 37.0433
ltoes -11.8882
2052
root -3.53449 17.4838 -2.74388 -532.675 154.682 182.901
lowerback -4.17046 2.76234 -2.1977
upperback -2.17707 3.77361 -0.703462
thorax 0.00426355 1.9059 0.658308
lowerneck -6.45114 3.50618 2.449
upperneck 15.6456 5.31978 -4.7479
head 5.98445 2.42038 -1.51736
rclavicle -4.23559e-014 -1.98785e-015
rhumerus -53.3192 -6.82992 -85.1587
rradius 79.7742
rwrist 16.2004
rhand -24.935 1.156
rfingers 7.12502
rthumb 1.57435 -388.818
lclavicle -4.23559e-014 -1.98785e-015
lhumerus -32.3788 24.5016 66.6479
lradius 69.6219
lwrist 56.4585
lhand -30.4848 60.1143
lfingers 7.12502
lthumb -3.78563 -90.0604
rfemur -5.67327 3.80064 15.7354
rtibia 9.36392
rfoot -15.3747 -28.8455
rtoes 15.7611
lfemur 0.314756 -10.5309 -10.16
ltibia 2.73437
lfoot -11.6372 37.1506
ltoes -11.8979
